<?xml version="1.0" encoding="UTF-8"?>
<svg xmlns="http://www.w3.org/2000/svg" xmlns:xlink="http://www.w3.org/1999/xlink" width="30px" height="30px" viewBox="0 0 30 30" version="1.1">
<g id="surface1">
<path style=" stroke:none;fill-rule:nonzero;fill:rgb(13.725491%,12.156863%,12.54902%);fill-opacity:1;" d="M 15.175781 4.746094 C 15.355469 4.847656 15.492188 4.96875 15.585938 5.15625 C 15.589844 5.292969 15.59375 5.425781 15.59375 5.5625 C 15.59375 5.605469 15.59375 5.644531 15.59375 5.6875 C 15.59375 5.828125 15.59375 5.964844 15.589844 6.101562 C 15.589844 6.199219 15.589844 6.292969 15.589844 6.390625 C 15.589844 6.644531 15.589844 6.894531 15.589844 7.148438 C 15.589844 7.40625 15.589844 7.660156 15.589844 7.917969 C 15.589844 8.421875 15.585938 8.929688 15.585938 9.433594 C 15.648438 9.441406 15.710938 9.449219 15.773438 9.457031 C 15.859375 9.464844 15.941406 9.476562 16.027344 9.488281 C 16.066406 9.492188 16.109375 9.496094 16.148438 9.5 C 16.589844 9.554688 17.015625 9.644531 17.445312 9.75 C 17.488281 9.757812 17.53125 9.769531 17.574219 9.777344 C 20.15625 10.394531 22.75 11.40625 24.84375 13.066406 C 24.917969 13.121094 24.917969 13.121094 24.992188 13.179688 C 25.390625 13.492188 25.765625 13.832031 26.132812 14.179688 C 26.164062 14.210938 26.195312 14.238281 26.226562 14.269531 C 26.714844 14.734375 27.140625 15.222656 27.539062 15.761719 C 27.578125 15.8125 27.613281 15.863281 27.652344 15.914062 C 28.789062 17.488281 29.492188 19.300781 29.824219 21.210938 C 29.832031 21.265625 29.84375 21.320312 29.851562 21.378906 C 29.980469 22.140625 30.019531 22.90625 30.027344 23.683594 C 30.027344 23.78125 30.03125 23.878906 30.03125 23.972656 C 30.035156 24.113281 30.035156 24.25 30.035156 24.386719 C 30.035156 24.425781 30.035156 24.46875 30.039062 24.511719 C 30.03125 24.839844 29.929688 24.972656 29.707031 25.195312 C 29.566406 25.265625 29.480469 25.261719 29.324219 25.261719 C 29.269531 25.261719 29.214844 25.261719 29.160156 25.261719 C 29.074219 25.261719 29.074219 25.261719 28.984375 25.261719 C 28.925781 25.261719 28.867188 25.261719 28.808594 25.261719 C 27.484375 25.25 27.484375 25.25 27.1875 24.960938 C 27.074219 24.8125 26.984375 24.652344 26.894531 24.492188 C 25.355469 21.777344 22.523438 20.4375 19.617188 19.617188 C 19.125 19.484375 18.632812 19.367188 18.132812 19.261719 C 18.042969 19.242188 18.042969 19.242188 17.949219 19.222656 C 17.1875 19.070312 16.414062 18.972656 15.644531 18.867188 C 15.644531 18.941406 15.644531 18.941406 15.644531 19.019531 C 15.644531 19.5 15.640625 19.976562 15.636719 20.453125 C 15.636719 20.699219 15.632812 20.945312 15.632812 21.191406 C 15.632812 21.425781 15.632812 21.664062 15.628906 21.902344 C 15.628906 21.992188 15.628906 22.082031 15.628906 22.171875 C 15.628906 22.296875 15.625 22.425781 15.625 22.550781 C 15.625 22.625 15.625 22.695312 15.625 22.769531 C 15.574219 23.035156 15.480469 23.132812 15.292969 23.320312 C 15.085938 23.425781 14.875 23.414062 14.648438 23.378906 C 14.503906 23.316406 14.503906 23.316406 14.355469 23.230469 C 14.296875 23.199219 14.242188 23.167969 14.183594 23.132812 C 13.871094 22.949219 13.558594 22.761719 13.246094 22.570312 C 13.175781 22.527344 13.101562 22.480469 13.03125 22.4375 C 12.882812 22.347656 12.734375 22.257812 12.585938 22.167969 C 12.269531 21.976562 11.957031 21.785156 11.644531 21.59375 C 11.472656 21.492188 11.304688 21.386719 11.132812 21.285156 C 11.066406 21.242188 10.996094 21.199219 10.929688 21.160156 C 9.152344 20.082031 7.371094 19 5.59375 17.921875 C 5.5625 17.902344 5.527344 17.882812 5.492188 17.859375 C 5.425781 17.820312 5.355469 17.777344 5.289062 17.734375 C 5.117188 17.632812 4.945312 17.527344 4.777344 17.425781 C 4.464844 17.234375 4.152344 17.046875 3.839844 16.855469 C 3.699219 16.769531 3.558594 16.683594 3.414062 16.597656 C 3.347656 16.554688 3.277344 16.511719 3.207031 16.472656 C 2.820312 16.234375 2.433594 16.003906 2.046875 15.769531 C 1.605469 15.507812 1.167969 15.242188 0.734375 14.972656 C 0.6875 14.945312 0.640625 14.917969 0.589844 14.886719 C 0.351562 14.738281 0.152344 14.601562 0 14.355469 C -0.03125 14.210938 -0.03125 14.210938 -0.03125 14.066406 C -0.0351562 13.996094 -0.0351562 13.996094 -0.0351562 13.921875 C 0.0390625 13.609375 0.257812 13.429688 0.519531 13.265625 C 0.613281 13.210938 0.703125 13.160156 0.792969 13.105469 C 0.898438 13.046875 1.007812 12.984375 1.113281 12.921875 C 1.167969 12.886719 1.226562 12.855469 1.285156 12.820312 C 1.574219 12.648438 1.863281 12.472656 2.152344 12.296875 C 2.292969 12.214844 2.433594 12.128906 2.570312 12.042969 C 2.679688 11.976562 2.785156 11.914062 2.894531 11.847656 C 3.203125 11.660156 3.511719 11.472656 3.824219 11.28125 C 3.996094 11.179688 4.164062 11.074219 4.335938 10.972656 C 4.402344 10.929688 4.472656 10.886719 4.539062 10.847656 C 4.574219 10.828125 4.609375 10.804688 4.644531 10.785156 C 6.386719 9.726562 8.128906 8.667969 9.875 7.609375 C 9.90625 7.589844 9.941406 7.570312 9.976562 7.546875 C 10.042969 7.507812 10.113281 7.464844 10.179688 7.421875 C 10.351562 7.320312 10.523438 7.214844 10.691406 7.113281 C 11 6.925781 11.308594 6.738281 11.621094 6.550781 C 11.757812 6.464844 11.894531 6.382812 12.035156 6.300781 C 12.101562 6.257812 12.167969 6.214844 12.238281 6.175781 C 12.621094 5.941406 13.003906 5.710938 13.386719 5.472656 C 13.4375 5.441406 13.4375 5.441406 13.492188 5.40625 C 13.660156 5.300781 13.832031 5.199219 14 5.09375 C 14.058594 5.054688 14.117188 5.019531 14.179688 4.980469 C 14.230469 4.949219 14.285156 4.914062 14.339844 4.882812 C 14.609375 4.726562 14.871094 4.699219 15.175781 4.746094 Z M 11.894531 10.253906 C 11.832031 10.289062 11.773438 10.328125 11.710938 10.367188 C 11.675781 10.386719 11.644531 10.40625 11.613281 10.429688 C 11.4375 10.535156 11.265625 10.644531 11.089844 10.753906 C 11.035156 10.785156 11.035156 10.785156 10.980469 10.820312 C 10.636719 11.035156 10.289062 11.242188 9.9375 11.453125 C 9.25 11.863281 8.5625 12.28125 7.878906 12.695312 C 7.617188 12.855469 7.355469 13.011719 7.097656 13.171875 C 6.984375 13.238281 6.871094 13.308594 6.757812 13.378906 C 6.683594 13.421875 6.609375 13.464844 6.539062 13.507812 C 6.4375 13.570312 6.335938 13.632812 6.238281 13.691406 C 6.179688 13.726562 6.121094 13.761719 6.0625 13.796875 C 5.953125 13.863281 5.847656 13.933594 5.742188 14.003906 C 5.742188 14.042969 5.742188 14.082031 5.742188 14.121094 C 5.871094 14.21875 5.871094 14.21875 6.042969 14.316406 C 6.109375 14.355469 6.175781 14.394531 6.242188 14.433594 C 6.316406 14.476562 6.386719 14.519531 6.460938 14.5625 C 6.535156 14.609375 6.609375 14.652344 6.683594 14.699219 C 6.839844 14.792969 6.996094 14.886719 7.152344 14.976562 C 7.46875 15.167969 7.785156 15.359375 8.101562 15.554688 C 8.273438 15.65625 8.441406 15.761719 8.613281 15.863281 C 8.648438 15.882812 8.679688 15.90625 8.714844 15.925781 C 8.921875 16.050781 9.128906 16.175781 9.335938 16.300781 C 9.472656 16.386719 9.609375 16.46875 9.75 16.550781 C 9.816406 16.59375 9.882812 16.636719 9.953125 16.675781 C 10.335938 16.910156 10.71875 17.144531 11.101562 17.378906 C 11.136719 17.402344 11.171875 17.425781 11.210938 17.445312 C 11.378906 17.550781 11.550781 17.65625 11.71875 17.765625 C 11.777344 17.800781 11.839844 17.839844 11.902344 17.875 C 11.953125 17.910156 12.007812 17.941406 12.058594 17.976562 C 12.179688 18.054688 12.179688 18.054688 12.304688 18.046875 C 12.304688 17.988281 12.308594 17.925781 12.308594 17.863281 C 12.3125 17.640625 12.316406 17.414062 12.324219 17.191406 C 12.324219 17.09375 12.328125 16.996094 12.328125 16.898438 C 12.332031 16.757812 12.335938 16.617188 12.339844 16.480469 C 12.339844 16.4375 12.339844 16.394531 12.339844 16.347656 C 12.347656 16.09375 12.367188 15.875 12.480469 15.644531 C 12.726562 15.484375 13.023438 15.507812 13.308594 15.507812 C 13.359375 15.507812 13.410156 15.507812 13.464844 15.507812 C 13.636719 15.503906 13.808594 15.503906 13.980469 15.503906 C 14.039062 15.503906 14.101562 15.503906 14.160156 15.503906 C 17.785156 15.515625 21.738281 16.339844 24.894531 18.15625 C 25.011719 18.230469 25.011719 18.230469 25.136719 18.222656 C 25.046875 17.929688 24.871094 17.722656 24.679688 17.492188 C 24.644531 17.449219 24.609375 17.40625 24.578125 17.367188 C 22.035156 14.316406 17.84375 12.898438 14.003906 12.539062 C 13.757812 12.519531 13.511719 12.507812 13.265625 12.5 C 12.988281 12.472656 12.742188 12.390625 12.480469 12.304688 C 12.363281 12.039062 12.347656 11.796875 12.339844 11.507812 C 12.335938 11.46875 12.335938 11.425781 12.335938 11.382812 C 12.332031 11.253906 12.328125 11.125 12.328125 10.992188 C 12.324219 10.90625 12.320312 10.816406 12.320312 10.726562 C 12.3125 10.511719 12.308594 10.292969 12.304688 10.078125 C 12.132812 10.078125 12.039062 10.160156 11.894531 10.253906 Z M 11.894531 10.253906 "/>
</g>
</svg>
